<svg width="35" height="35" viewBox="0 0 35 35" fill="none" xmlns="http://www.w3.org/2000/svg">
    <rect width="35" height="35" rx="6" fill="#FCD34D"/>
    <path d="M8 13C8 11.3431 9.34315 10 11 10H13C14.6569 10 16 11.3431 16 13V15C16 16.6569 14.6569 18 13 18H11C9.34315 18 8 16.6569 8 15V13Z" fill="#1F2937"/>
    <path d="M19 13C19 11.3431 20.3431 10 22 10H24C25.6569 10 27 11.3431 27 13V15C27 16.6569 25.6569 18 24 18H22C20.3431 18 19 16.6569 19 15V13Z" fill="#1F2937"/>
    <path d="M8 22C8 20.3431 9.34315 19 11 19H13C14.6569 19 16 20.3431 16 22V24C16 25.6569 14.6569 27 13 27H11C9.34315 27 8 25.6569 8 24V22Z" fill="#1F2937"/>
    <path d="M19 22C19 20.3431 20.3431 19 22 19H24C25.6569 19 27 20.3431 27 22V24C27 25.6569 25.6569 27 24 27H22C20.3431 27 19 25.6569 19 24V22Z" fill="#1F2937"/>
    <circle cx="12" cy="14" r="1.2" fill="#FCD34D"/>
    <circle cx="23" cy="14" r="1.2" fill="#FCD34D"/>
    <circle cx="12" cy="23" r="1.2" fill="#FCD34D"/>
    <circle cx="23" cy="23" r="1.2" fill="#FCD34D"/>
    <rect x="16" y="13" width="3" height="2" rx="0.5" fill="#1F2937"/>
    <rect x="16" y="22" width="3" height="2" rx="0.5" fill="#1F2937"/>
    <rect x="11.5" y="18" width="2" height="1" rx="0.3" fill="#1F2937"/>
    <rect x="22.5" y="18" width="2" height="1" rx="0.3" fill="#1F2937"/>
</svg>