<svg width="35" height="35" viewBox="0 0 35 35" fill="none" xmlns="http://www.w3.org/2000/svg">
    <rect width="35" height="35" rx="4" fill="#F7DF1E"/>
    <rect x="11" y="11" width="13" height="13" rx="2" fill="#323330"/>
    <rect x="14" y="14" width="7" height="7" rx="1" fill="#F7DF1E"/>
    <!-- Pins -->
    <rect x="7" y="13" width="3" height="2" fill="#323330"/>
    <rect x="7" y="17" width="3" height="2" fill="#323330"/>
    <rect x="7" y="21" width="3" height="2" fill="#323330"/>
    <rect x="25" y="13" width="3" height="2" fill="#323330"/>
    <rect x="25" y="17" width="3" height="2" fill="#323330"/>
    <rect x="25" y="21" width="3" height="2" fill="#323330"/>
    <rect x="13" y="7" width="2" height="3" fill="#323330"/>
    <rect x="17" y="7" width="2" height="3" fill="#323330"/>
    <rect x="21" y="7" width="2" height="3" fill="#323330"/>
    <rect x="13" y="25" width="2" height="3" fill="#323330"/>
    <rect x="17" y="25" width="2" height="3" fill="#323330"/>
    <rect x="21" y="25" width="2" height="3" fill="#323330"/>
</svg>